# xmcd
#
# Track frame offsets: 
#        150
#        24608
#        42082
#        63773
#        81467
#
# Disc length: 1247 seconds
#
# Revision: 3
# Processed by: cddbd v1.5.2PL0 Copyright (c) Steve Scherf et al.
# Submitted via: ExactAudioCopy v1.3
#
DISCID=3704dd05
DTITLE=Little Glee Monster - Joyful Monster
DYEAR=2017
DGENRE=JPop
TTITLE0=One more time, One more chance
TTITLE1=何度でも -manaka・かれん・アサヒ・麻珠ver.-
TTITLE2=たしかなこと -芹奈・MAYU ver.-
TTITLE3=CAN'T TAKE MY EYES OFF OF YOU
TTITLE4=SEASONS OF LOVE -Live on 2016.09.11-
EXTD=2017.01.06  SRCL-9279
EXTT0=
EXTT1=
EXTT2=
EXTT3=
EXTT4=
PLAYORDER=
